<?xml version="1.0" standalone="no"?>
<!DOCTYPE svg PUBLIC "-//W3C//DTD SVG 20010904//EN"
 "http://www.w3.org/TR/2001/REC-SVG-20010904/DTD/svg10.dtd">
<svg version="1.0" xmlns="http://www.w3.org/2000/svg"
 width="1024.000000pt" height="1024.000000pt" viewBox="0 0 1024.000000 1024.000000"
 preserveAspectRatio="xMidYMid meet">

<g transform="translate(0.000000,1024.000000) scale(0.100000,-0.100000)"
fill="#000000" stroke="none">
<path d="M0 5120 l0 -5120 5120 0 5120 0 0 5120 0 5120 -5120 0 -5120 0 0
-5120z m6215 2770 l550 -550 5 -880 5 -880 -102 0 -103 0 0 794 0 794 -398 0
-398 -1 -56 25 c-75 35 -132 88 -165 156 l-28 57 -3 418 -3 417 -1110 0
c-1224 0 -1161 3 -1194 -61 -22 -42 -22 -4216 0 -4258 33 -65 -81 -61 1670
-61 1448 0 1590 1 1621 16 44 21 64 59 64 123 l0 50 -597 3 -598 3 -57 28
c-79 39 -143 104 -181 185 l-32 67 0 410 0 410 28 57 c39 79 104 143 185 181
l67 32 922 3 c916 2 923 2 985 -19 116 -39 210 -133 243 -244 21 -69 21 -755
1 -833 -29 -108 -108 -201 -214 -250 -56 -27 -61 -27 -304 -30 l-248 -3 0 -77
c0 -54 -6 -90 -19 -119 -27 -58 -96 -130 -156 -161 l-50 -27 -1660 0 -1660 0
-50 27 c-62 32 -129 103 -158 166 l-22 47 0 2145 0 2145 27 57 c34 73 104 141
171 167 51 20 76 20 1262 20 l1210 1 550 -550z m-708 253 c-3 -10 -5 -4 -5 12
0 17 2 24 5 18 2 -7 2 -21 0 -30z m0 -155 c-3 -8 -6 -5 -6 6 -1 11 2 17 5 13
3 -3 4 -12 1 -19z m0 -150 c-3 -8 -6 -5 -6 6 -1 11 2 17 5 13 3 -3 4 -12 1
-19z m0 -150 c-3 -8 -6 -5 -6 6 -1 11 2 17 5 13 3 -3 4 -12 1 -19z m198 -775
l79 -83 -84 -85 -85 -85 -84 84 -85 85 85 85 c46 47 86 84 89 84 3 0 41 -38
85 -85z m336 -308 c139 -256 124 -561 -33 -685 -90 -72 -84 -71 -740 -67 -320
2 -595 7 -610 12 -25 6 -28 5 -28 -16 0 -44 -58 -149 -113 -203 -145 -146
-427 -206 -635 -135 -130 44 -235 152 -267 274 -19 75 -19 126 1 223 17 88
108 287 127 279 112 -45 128 -53 123 -67 -3 -8 -17 -46 -30 -85 -84 -232 38
-408 284 -408 148 0 238 42 284 134 l26 53 0 273 0 273 104 0 104 0 -1 -129
-2 -130 63 69 c117 129 265 219 426 260 195 49 328 2 395 -140 23 -48 26 -68
26 -160 0 -58 -3 -117 -8 -132 l-7 -28 133 0 c242 0 287 20 287 130 0 74 -36
181 -89 266 -23 36 -41 67 -41 69 0 10 165 145 174 142 6 -2 27 -34 47 -72z
m116 -337 c-3 -8 -6 -5 -6 6 -1 11 2 17 5 13 3 -3 4 -12 1 -19z m-2570 -360
c-3 -8 -6 -5 -6 6 -1 11 2 17 5 13 3 -3 4 -12 1 -19z m0 -80 c-3 -8 -6 -5 -6
6 -1 11 2 17 5 13 3 -3 4 -12 1 -19z m1196 5 c-7 -2 -19 -2 -25 0 -7 3 -2 5
12 5 14 0 19 -2 13 -5z m320 0 c-7 -2 -21 -2 -30 0 -10 3 -4 5 12 5 17 0 24
-2 18 -5z m414 1 c-3 -3 -12 -4 -19 -1 -8 3 -5 6 6 6 11 1 17 -2 13 -5z m-60
-390 c-3 -3 -12 -4 -19 -1 -8 3 -5 6 6 6 11 1 17 -2 13 -5z m56 -1 c-7 -2 -21
-2 -30 0 -10 3 -4 5 12 5 17 0 24 -2 18 -5z m215 0 c-27 -2 -69 -2 -95 0 -27
2 -5 3 47 3 52 0 74 -1 48 -3z m205 0 c-7 -2 -19 -2 -25 0 -7 3 -2 5 12 5 14
0 19 -2 13 -5z m60 0 c-7 -2 -19 -2 -25 0 -7 3 -2 5 12 5 14 0 19 -2 13 -5z
m100 0 c-13 -2 -33 -2 -45 0 -13 2 -3 4 22 4 25 0 35 -2 23 -4z m170 0 c-24
-2 -62 -2 -85 0 -24 2 -5 4 42 4 47 0 66 -2 43 -4z m74 1 c-3 -3 -12 -4 -19
-1 -8 3 -5 6 6 6 11 1 17 -2 13 -5z m91 -1 c-16 -2 -40 -2 -55 0 -16 2 -3 4
27 4 30 0 43 -2 28 -4z m250 0 c-26 -2 -71 -2 -100 0 -29 2 -8 3 47 3 55 0 79
-1 53 -3z m99 1 c-3 -3 -12 -4 -19 -1 -8 3 -5 6 6 6 11 1 17 -2 13 -5z m70 0
c-3 -3 -12 -4 -19 -1 -8 3 -5 6 6 6 11 1 17 -2 13 -5z m291 -1 c-38 -2 -98 -2
-135 0 -38 2 -7 3 67 3 74 0 105 -1 68 -3z m-4181 -2359 c-3 -3 -12 -4 -19 -1
-8 3 -5 6 6 6 11 1 17 -2 13 -5z m3840 0 c-3 -3 -12 -4 -19 -1 -8 3 -5 6 6 6
11 1 17 -2 13 -5z m-4337 -114 l0 -100 -145 0 -145 0 0 -425 0 -425 -110 0
-110 0 0 425 0 425 -150 0 -150 0 0 100 0 100 405 0 405 0 0 -100z m850 0 l0
-100 -205 0 -206 0 3 -110 2 -110 188 0 188 0 0 -100 0 -100 -189 0 -189 0 0
-115 0 -115 219 0 219 0 0 -100 0 -100 -327 2 -328 3 -3 510 c-1 281 0 516 3
523 3 9 76 12 315 12 l310 0 0 -100z m570 -67 c52 -89 98 -162 101 -163 7 0
184 285 195 313 5 15 22 17 125 17 65 0 119 -2 119 -5 0 -3 -68 -113 -150
-245 -83 -132 -153 -247 -156 -255 -4 -9 61 -117 165 -275 94 -143 171 -262
171 -265 0 -3 -54 -5 -120 -5 l-121 0 -65 103 c-36 56 -89 139 -117 184 l-52
81 -110 -184 -110 -183 -117 -1 c-75 0 -118 4 -118 10 0 6 74 128 165 270 91
143 165 262 165 266 0 3 -57 94 -127 202 -69 108 -142 221 -160 250 l-34 53
128 -3 128 -3 95 -162z m1500 67 l0 -100 -145 0 -145 0 0 -425 0 -425 -110 0
-110 0 0 425 0 425 -150 0 -150 0 0 100 0 100 405 0 405 0 0 -100z m836 -420
c106 -283 193 -518 194 -522 0 -5 -51 -8 -113 -8 l-112 0 -40 115 -40 115
-196 0 -195 0 -40 -112 -39 -113 -112 -3 c-66 -1 -113 1 -113 7 0 5 38 110 84
233 72 192 263 698 295 781 l11 28 112 -3 111 -3 193 -515z m950 494 c71 -22
141 -78 178 -144 28 -49 31 -65 34 -158 3 -81 1 -113 -13 -149 -21 -54 -72
-113 -123 -145 -21 -12 -38 -22 -40 -24 -2 -1 44 -85 102 -187 58 -102 109
-192 112 -201 5 -14 -8 -16 -113 -16 l-119 0 -99 185 -100 184 -72 1 -73 0 0
-185 0 -185 -110 0 -110 0 0 523 0 523 248 -4 c188 -2 259 -6 298 -18z m1222
-492 c106 -284 193 -521 192 -525 0 -4 -50 -6 -112 -5 l-112 3 -40 113 -40
112 -196 0 -195 0 -39 -115 -40 -115 -114 0 c-113 0 -113 0 -106 22 4 13 38
104 75 203 38 99 124 325 192 502 l122 323 110 0 110 0 193 -518z m-1781 336
c-3 -8 -6 -5 -6 6 -1 11 2 17 5 13 3 -3 4 -12 1 -19z m0 -150 c-3 -8 -6 -5 -6
6 -1 11 2 17 5 13 3 -3 4 -12 1 -19z m-3374 -75 c-7 -2 -21 -2 -30 0 -10 3 -4
5 12 5 17 0 24 -2 18 -5z m3624 -315 c-3 -7 -5 -2 -5 12 0 14 2 19 5 13 2 -7
2 -19 0 -25z m-250 -20 c-3 -8 -6 -5 -6 6 -1 11 2 17 5 13 3 -3 4 -12 1 -19z
m250 -100 c-2 -13 -4 -3 -4 22 0 25 2 35 4 23 2 -13 2 -33 0 -45z m-250 10
c-3 -7 -5 -2 -5 12 0 14 2 19 5 13 2 -7 2 -19 0 -25z m-1500 0 c-3 -8 -6 -5
-6 6 -1 11 2 17 5 13 3 -3 4 -12 1 -19z m766 -5 c-7 -2 -21 -2 -30 0 -10 3 -4
5 12 5 17 0 24 -2 18 -5z m195 0 c-10 -2 -28 -2 -40 0 -13 2 -5 4 17 4 22 1
32 -1 23 -4z m539 -55 c-3 -8 -6 -5 -6 6 -1 11 2 17 5 13 3 -3 4 -12 1 -19z
m250 -15 c-3 -10 -5 -4 -5 12 0 17 2 24 5 18 2 -7 2 -21 0 -30z m-4864 -160
c-7 -2 -19 -2 -25 0 -7 3 -2 5 12 5 14 0 19 -2 13 -5z m960 0 c-13 -2 -35 -2
-50 0 -16 2 -5 4 22 4 28 0 40 -2 28 -4z m70 0 c-7 -2 -21 -2 -30 0 -10 3 -4
5 12 5 17 0 24 -2 18 -5z m534 1 c-3 -3 -12 -4 -19 -1 -8 3 -5 6 6 6 11 1 17
-2 13 -5z m190 0 c-3 -3 -12 -4 -19 -1 -8 3 -5 6 6 6 11 1 17 -2 13 -5z m566
-1 c-7 -2 -19 -2 -25 0 -7 3 -2 5 12 5 14 0 19 -2 13 -5z m710 0 c-13 -2 -33
-2 -45 0 -13 2 -3 4 22 4 25 0 35 -2 23 -4z m424 1 c-3 -3 -12 -4 -19 -1 -8 3
-5 6 6 6 11 1 17 -2 13 -5z m110 0 c-3 -3 -12 -4 -19 -1 -8 3 -5 6 6 6 11 1
17 -2 13 -5z m60 0 c-3 -3 -12 -4 -19 -1 -8 3 -5 6 6 6 11 1 17 -2 13 -5z
m1080 0 c-3 -3 -12 -4 -19 -1 -8 3 -5 6 6 6 11 1 17 -2 13 -5z m56 -1 c-7 -2
-21 -2 -30 0 -10 3 -4 5 12 5 17 0 24 -2 18 -5z m590 0 c-13 -2 -33 -2 -45 0
-13 2 -3 4 22 4 25 0 35 -2 23 -4z m294 1 c-3 -3 -12 -4 -19 -1 -8 3 -5 6 6 6
11 1 17 -2 13 -5z m116 -1 c-7 -2 -21 -2 -30 0 -10 3 -4 5 12 5 17 0 24 -2 18
-5z"/>
<path d="M5720 7782 c0 -359 1 -366 64 -396 30 -14 74 -16 350 -14 l316 3
-365 365 -365 365 0 -323z m17 216 c-3 -8 -6 -5 -6 6 -1 11 2 17 5 13 3 -3 4
-12 1 -19z m0 -175 c-2 -16 -4 -5 -4 22 0 28 2 40 4 28 2 -13 2 -35 0 -50z m0
-260 c-1 -43 -3 -8 -3 77 0 85 2 120 3 78 2 -43 2 -113 0 -155z m190 -179 c-3
-3 -12 -4 -19 -1 -8 3 -5 6 6 6 11 1 17 -2 13 -5z m221 -1 c-10 -2 -28 -2 -40
0 -13 2 -5 4 17 4 22 1 32 -1 23 -4z m59 1 c-3 -3 -12 -4 -19 -1 -8 3 -5 6 6
6 11 1 17 -2 13 -5z m121 -1 c-10 -2 -28 -2 -40 0 -13 2 -5 4 17 4 22 1 32 -1
23 -4z"/>
<path d="M5405 5216 c-39 -18 -80 -62 -99 -108 -13 -31 -16 -92 -16 -370 0
-302 2 -337 19 -373 22 -48 54 -79 103 -100 33 -13 146 -15 916 -15 l878 0 44
23 c49 24 84 69 100 126 13 48 13 645 0 693 -14 50 -55 97 -105 119 -38 18
-88 19 -925 18 -718 0 -891 -2 -915 -13z m810 -259 c57 -32 94 -91 108 -170
29 -170 -61 -306 -202 -307 -139 0 -219 103 -209 269 7 108 55 191 128 220 46
18 132 13 175 -12z m436 0 c45 -31 79 -83 79 -123 0 -34 0 -34 -49 -34 -47 0
-50 2 -68 38 -28 57 -84 57 -117 0 -15 -24 -20 -51 -20 -109 0 -96 23 -142 73
-147 37 -4 71 20 71 50 0 15 8 18 60 18 51 0 60 -3 60 -18 0 -29 -43 -104 -72
-126 -34 -24 -131 -33 -181 -17 -82 28 -133 136 -125 267 9 139 86 224 203
224 38 0 61 -6 86 -23z m-908 -3 c88 -44 122 -107 122 -224 0 -89 -13 -128
-59 -178 -45 -50 -86 -62 -211 -62 l-115 0 0 240 0 240 115 0 c87 0 124 -4
148 -16z m1188 -60 l42 -76 40 76 41 76 59 0 c59 0 59 0 45 -22 -8 -13 -40
-67 -72 -120 l-56 -97 70 -116 c38 -64 70 -119 70 -123 0 -4 -28 -6 -62 -6
l-63 2 -41 77 -41 77 -45 -77 -44 -77 -57 -1 c-31 -1 -57 -1 -57 0 0 1 32 57
71 123 l70 121 -24 42 c-14 23 -46 77 -71 120 l-46 77 64 0 65 0 42 -76z
m-584 -216 c-3 -7 -5 -2 -5 12 0 14 2 19 5 13 2 -7 2 -19 0 -25z"/>
<path d="M6056 4850 c-69 -83 -31 -270 56 -270 68 0 102 50 101 150 0 101 -34
150 -101 150 -21 0 -38 -9 -56 -30z"/>
<path d="M5590 4729 l0 -152 51 5 c36 4 58 12 76 30 44 45 53 158 16 216 -17
28 -70 52 -113 52 l-30 0 0 -151z"/>
<path d="M5060 6281 c-87 -27 -177 -80 -239 -139 -49 -47 -54 -54 -39 -63 11
-6 114 -9 267 -7 248 3 250 3 275 27 33 31 36 99 6 141 -41 58 -160 76 -270
41z"/>
<path d="M5900 2799 c0 -9 -27 -92 -60 -184 -33 -92 -60 -169 -60 -169 0 -1
56 0 125 2 69 2 125 4 125 6 0 9 -112 331 -120 345 -9 15 -9 15 -10 0z m-57
-336 c-7 -2 -21 -2 -30 0 -10 3 -4 5 12 5 17 0 24 -2 18 -5z"/>
<path d="M6840 2730 l0 -140 113 0 c93 0 117 3 144 20 91 55 81 193 -17 242
-27 14 -60 18 -137 18 l-103 0 0 -140z m17 88 c-3 -7 -5 -2 -5 12 0 14 2 19 5
13 2 -7 2 -19 0 -25z"/>
<path d="M8026 2649 c-32 -90 -60 -172 -63 -181 -5 -17 5 -18 119 -18 l125 0
-57 168 c-31 92 -59 173 -62 181 -2 8 -30 -60 -62 -150z"/>
</g>
</svg>
