<?xml version="1.0" standalone="no"?>
<!DOCTYPE svg PUBLIC "-//W3C//DTD SVG 20010904//EN"
 "http://www.w3.org/TR/2001/REC-SVG-20010904/DTD/svg10.dtd">
<svg version="1.0" xmlns="http://www.w3.org/2000/svg"
 width="2000.000000pt" height="2000.000000pt" viewBox="0 0 2000.000000 2000.000000"
 preserveAspectRatio="xMidYMid meet">

<g transform="translate(0.000000,2000.000000) scale(0.100000,-0.100000)"
fill="#000000" stroke="none">
<path d="M3706 11499 c-113 -27 -224 -121 -279 -237 l-32 -67 -3 -382 -3 -383
1138 0 1138 0 -25 24 c-14 13 -294 256 -622 540 l-598 516 -337 -1 c-186 -1
-355 -5 -377 -10z"/>
<path d="M5795 11491 c11 -11 400 -348 865 -751 465 -402 846 -735 848 -739 1
-4 -376 -335 -839 -737 l-842 -729 374 -3 c206 -1 923 -1 1594 0 l1220 3 59
28 c117 54 190 137 227 258 18 58 19 110 19 1193 0 1229 1 1194 -55 1289 -28
49 -105 125 -156 155 -90 54 -24 52 -1743 52 -1565 0 -1590 0 -1571 -19z
m2565 -1042 c288 -46 468 -348 367 -619 -84 -227 -322 -355 -552 -295 -181 48
-315 196 -347 383 -45 270 163 520 452 541 8 0 44 -4 80 -10z"/>
<path d="M9960 11105 l0 -75 275 0 275 0 0 -1050 0 -1050 85 0 85 0 2 1048 3
1047 283 3 282 2 0 75 0 75 -645 0 -645 0 0 -75z"/>
<path d="M13082 10198 l3 -983 22 -57 c28 -73 72 -138 121 -177 38 -30 157
-91 177 -91 10 0 55 105 55 125 0 6 -18 18 -39 28 -86 39 -144 127 -161 244
-5 38 -10 296 -10 576 l0 507 159 0 158 0 37 80 c20 43 36 82 36 85 0 3 -88 5
-195 5 l-195 0 0 320 0 320 -85 0 -86 0 3 -982z"/>
<path d="M14251 10993 c-33 -104 -193 -602 -356 -1108 -162 -506 -298 -928
-301 -937 -5 -16 4 -18 88 -18 l94 0 26 83 c15 45 72 223 128 395 l101 312
367 0 367 0 131 -392 131 -393 92 -3 c73 -2 92 0 89 10 -4 11 -443 1359 -673
2066 l-56 172 -84 0 -84 0 -60 -187z m309 -597 c83 -263 154 -485 157 -492 4
-12 -50 -14 -316 -14 -177 0 -321 3 -321 7 0 9 302 986 308 997 2 5 8 2 12 -5
4 -8 76 -230 160 -493z"/>
<path d="M16070 10568 c-124 -8 -258 -41 -398 -96 l-102 -40 0 54 0 54 -90 0
-90 0 0 -805 0 -805 90 0 90 0 0 659 0 659 79 41 c152 79 359 131 522 131 88
0 89 1 89 90 l0 58 -42 3 c-24 2 -90 1 -148 -3z"/>
<path d="M11235 10560 c-191 -31 -337 -127 -409 -272 -55 -109 -57 -131 -54
-629 3 -445 3 -455 26 -510 63 -157 213 -242 453 -256 151 -9 311 20 467 84
11 4 12 1 3 -15 -6 -11 -11 -23 -11 -27 0 -3 46 -4 102 -3 l102 3 192 310
c106 170 197 311 201 312 4 2 95 -139 202 -312 l194 -315 103 0 103 0 -250
399 -251 400 251 403 250 403 -91 3 c-65 2 -95 -1 -104 -10 -6 -7 -89 -137
-184 -288 -95 -151 -184 -292 -197 -313 l-24 -39 -196 314 c-107 172 -201 319
-207 326 -9 9 -40 12 -109 10 l-97 -3 26 -39 c15 -21 22 -37 18 -35 -5 2 -36
18 -70 36 -33 17 -89 39 -123 48 -77 20 -236 27 -316 15z m307 -178 c92 -45
161 -122 188 -209 17 -54 20 -93 20 -233 l0 -169 -42 -5 c-24 -3 -171 -10
-328 -16 -157 -6 -320 -13 -362 -16 l-78 -6 0 179 c0 206 12 269 66 351 76
115 187 163 364 159 97 -2 112 -5 172 -35z m522 -425 c75 -120 136 -223 136
-228 0 -13 -383 -619 -391 -619 -4 0 -12 14 -19 31 -7 16 -18 28 -24 25 -224
-100 -340 -130 -486 -124 -161 7 -251 54 -308 163 -24 46 -26 62 -30 202 l-4
151 83 6 c100 8 831 46 872 46 l28 0 -3 290 c-2 159 0 286 3 282 4 -4 68 -105
143 -225z"/>
<path d="M16640 10519 c0 -24 -3 -54 -6 -66 -6 -22 -4 -23 54 -23 76 0 199
-23 256 -48 102 -46 170 -144 182 -264 l7 -67 -88 44 c-165 83 -323 125 -475
125 -265 0 -440 -122 -485 -337 -20 -95 -20 -482 0 -577 43 -203 168 -329 376
-382 89 -22 398 -30 612 -15 95 6 185 14 200 17 l28 6 -3 591 c-4 572 -5 595
-26 670 -69 247 -212 349 -514 364 l-118 6 0 -44z m90 -464 c97 -20 207 -58
312 -107 l88 -41 0 -417 0 -417 -47 -6 c-27 -4 -120 -12 -208 -18 -380 -26
-546 39 -608 236 -20 64 -22 90 -22 320 0 233 1 253 21 295 38 82 98 134 184
161 43 13 206 10 280 -6z"/>
<path d="M3390 9232 c0 -273 3 -349 16 -397 31 -120 110 -215 222 -268 l67
-32 387 -3 386 -3 596 516 c328 284 596 518 596 520 0 3 -511 5 -1135 5
l-1135 0 0 -338z"/>
</g>
</svg>
