<svg xmlns="http://www.w3.org/2000/svg" version="1.0" viewBox="0 0 2000 2000">
  <path d="M370.6 850.1c-11.3 2.7-22.4 12.1-27.9 23.7l-3.2 6.7-.3 38.2-.3 38.3h227.6l-2.5-2.4c-1.4-1.3-29.4-25.6-62.2-54L442 849l-33.7.1c-18.6.1-35.5.5-37.7 1zm208.9.8c1.1 1.1 40 34.8 86.5 75.1 46.5 40.2 84.6 73.5 84.8 73.9.1.4-37.6 33.5-83.9 73.7l-84.2 72.9 37.4.3c20.6.1 92.3.1 159.4 0l122-.3 5.9-2.8c11.7-5.4 19-13.7 22.7-25.8 1.8-5.8 1.9-11 1.9-119.3 0-122.9.1-119.4-5.5-128.9-2.8-4.9-10.5-12.5-15.6-15.5-9-5.4-2.4-5.2-174.3-5.2-156.5 0-159 0-157.1 1.9zM836 955.1c28.8 4.6 46.8 34.8 36.7 61.9-8.4 22.7-32.2 35.5-55.2 29.5-18.1-4.8-31.5-19.6-34.7-38.3-4.5-27 16.3-52 45.2-54.1.8 0 4.4.4 8 1zm160-65.6v7.5h55v210h17l.2-104.8.3-104.7 28.3-.3 28.2-.2v-15H996v7.5zm312.2 90.7.3 98.3 2.2 5.7c2.8 7.3 7.2 13.8 12.1 17.7 3.8 3 15.7 9.1 17.7 9.1 1 0 5.5-10.5 5.5-12.5 0-.6-1.8-1.8-3.9-2.8-8.6-3.9-14.4-12.7-16.1-24.4-.5-3.8-1-29.6-1-57.6V963h31.7l3.7-8c2-4.3 3.6-8.2 3.6-8.5 0-.3-8.8-.5-19.5-.5H1325v-64h-17.1l.3 98.2zm116.9-79.5c-3.3 10.4-19.3 60.2-35.6 110.8-16.2 50.6-29.8 92.8-30.1 93.7-.5 1.6.4 1.8 8.8 1.8h9.4l2.6-8.3c1.5-4.5 7.2-22.3 12.8-39.5l10.1-31.2h73.4l13.1 39.2 13.1 39.3 9.2.3c7.3.2 9.2 0 8.9-1-.4-1.1-44.3-135.9-67.3-206.6l-5.6-17.2h-16.8l-6 18.7zm30.9 59.7c8.3 26.3 15.4 48.5 15.7 49.2.4 1.2-5 1.4-31.6 1.4-17.7 0-32.1-.3-32.1-.7 0-.9 30.2-98.6 30.8-99.7.2-.5.8-.2 1.2.5.4.8 7.6 23 16 49.3zm151-17.2c-12.4.8-25.8 4.1-39.8 9.6l-10.2 4V946h-18v161h18V975.2l7.9-4.1c15.2-7.9 35.9-13.1 52.2-13.1 8.8 0 8.9-.1 8.9-9v-5.8l-4.2-.3c-2.4-.2-9-.1-14.8.3z"/>
  <path d="M1123.5 944c-19.1 3.1-33.7 12.7-40.9 27.2-5.5 10.9-5.7 13.1-5.4 62.9.3 44.5.3 45.5 2.6 51 6.3 15.7 21.3 24.2 45.3 25.6 15.1.9 31.1-2 46.7-8.4 1.1-.4 1.2-.1.3 1.5-.6 1.1-1.1 2.3-1.1 2.7 0 .3 4.6.4 10.2.3l10.2-.3 19.2-31c10.6-17 19.7-31.1 20.1-31.2.4-.2 9.5 13.9 20.2 31.2l19.4 31.5h20.6l-25-39.9-25.1-40 25.1-40.3 25-40.3-9.1-.3c-6.5-.2-9.5.1-10.4 1-.6.7-8.9 13.7-18.4 28.8-9.5 15.1-18.4 29.2-19.7 31.3l-2.4 3.9-19.6-31.4c-10.7-17.2-20.1-31.9-20.7-32.6-.9-.9-4-1.2-10.9-1l-9.7.3 2.6 3.9c1.5 2.1 2.2 3.7 1.8 3.5-.5-.2-3.6-1.8-7-3.6-3.3-1.7-8.9-3.9-12.3-4.8-7.7-2-23.6-2.7-31.6-1.5zm30.7 17.8c9.2 4.5 16.1 12.2 18.8 20.9 1.7 5.4 2 9.3 2 23.3v16.9l-4.2.5c-2.4.3-17.1 1-32.8 1.6-15.7.6-32 1.3-36.2 1.6l-7.8.6v-17.9c0-20.6 1.2-26.9 6.6-35.1 7.6-11.5 18.7-16.3 36.4-15.9 9.7.2 11.2.5 17.2 3.5zm52.2 42.5c7.5 12 13.6 22.3 13.6 22.8 0 1.3-38.3 61.9-39.1 61.9-.4 0-1.2-1.4-1.9-3.1-.7-1.6-1.8-2.8-2.4-2.5-22.4 10-34 13-48.6 12.4-16.1-.7-25.1-5.4-30.8-16.3-2.4-4.6-2.6-6.2-3-20.2l-.4-15.1 8.3-.6c10-.8 83.1-4.6 87.2-4.6h2.8l-.3-29c-.2-15.9 0-28.6.3-28.2.4.4 6.8 10.5 14.3 22.5zm457.6-56.2c0 2.4-.3 5.4-.6 6.6-.6 2.2-.4 2.3 5.4 2.3 7.6 0 19.9 2.3 25.6 4.8 10.2 4.6 17 14.4 18.2 26.4l.7 6.7-8.8-4.4c-16.5-8.3-32.3-12.5-47.5-12.5-26.5 0-44 12.2-48.5 33.7-2 9.5-2 48.2 0 57.7 4.3 20.3 16.8 32.9 37.6 38.2 8.9 2.2 39.8 3 61.2 1.5 9.5-.6 18.5-1.4 20-1.7l2.8-.6-.3-59.1c-.4-57.2-.5-59.5-2.6-67-6.9-24.7-21.2-34.9-51.4-36.4l-11.8-.6v4.4zm9 46.4c9.7 2 20.7 5.8 31.2 10.7l8.8 4.1v83.4l-4.7.6c-2.7.4-12 1.2-20.8 1.8-38 2.6-54.6-3.9-60.8-23.6-2-6.4-2.2-9-2.2-32 0-23.3.1-25.3 2.1-29.5 3.8-8.2 9.8-13.4 18.4-16.1 4.3-1.3 20.6-1 28 .6zm-1334 82.3c0 27.3.3 34.9 1.6 39.7 3.1 12 11 21.5 22.2 26.8l6.7 3.2 38.7.3 38.6.3 59.6-51.6c32.8-28.4 59.6-51.8 59.6-52 0-.3-51.1-.5-113.5-.5H339v33.8z"/>
</svg>
